<svg width="1080" height="280" viewBox="0 0 1080 280" fill="none" xmlns="http://www.w3.org/2000/svg">
    <g clip-path="url(#clip0_1_2)">
        <path d="M845.2 114.9C811.9 138.7 776.4 163.5 739.8 182.1C700.9 201.9 665.6 212.3 631.6 213.8C587.4 215.9 539.1 203.5 479.6 174.8C458.3 164.5 436.9 152.9 416.1 141.7C386.1 125.5 355.1 108.7 322.5 94.7C221.8 51.5 108.3 37.3 0 53.9V120.8C99.2 103.6 204 115.7 296.5 155.4C326.3 168.2 354.6 183.5 384.6 199.8C406 211.4 428.2 223.4 450.9 234.3C515.4 265.3 570.1 280 622 280C626.2 280 630.4 279.9 634.6 279.7C726.9 275.4 805 224.7 883.6 168.5C945.5 124.2 1009.4 78.5 1080 66.7V0C989.6 11.6 913 66.4 845.2 114.9Z" fill="#F1EDE1"/>
    </g>
    <defs>
        <clipPath id="clip0_1_2">
            <rect width="1080" height="280" fill="white"/>
        </clipPath>
    </defs>
</svg>